name C:\Users\u0101727\Documents\MyRepositories\upper-imu-dc\Results\main_tracking\Case_31\FLX01_angularVelocities_groundFrame.mot
datacolumns 4
datarows 117
range 2.01000000 3.17000000
endheader 
time	radius_imu_x	radius_imu_y	radius_imu_z	
          2.01000000	         -0.32003670	         -0.28019309	          1.12197479	
          2.02000000	         -0.47374872	         -0.35042046	          1.07325594	
          2.03000000	         -0.65397135	         -0.43767498	          1.01543940	
          2.04000000	         -0.83008637	         -0.52675121	          0.95667785	
          2.05000000	         -0.97378149	         -0.60180013	          0.90509758	
          2.06000000	         -1.06647294	         -0.65076693	          0.86662484	
          2.07000000	         -1.10310024	         -0.66840237	          0.84364484	
          2.08000000	         -1.09051293	         -0.65636113	          0.83514627	
          2.09000000	         -1.04120721	         -0.62026765	          0.83827065	
          2.10000000	         -0.96577570	         -0.56538677	          0.85037124	
          2.11000000	         -0.86900287	         -0.49396762	          0.87015338	
          2.12000000	         -0.75254867	         -0.40660192	          0.89698433	
          2.13000000	         -0.62186170	         -0.30668424	          0.92899754	
          2.14000000	         -0.49166286	         -0.20448648	          0.96161475	
          2.15000000	         -0.38604201	         -0.11789178	          0.98763546	
          2.16000000	         -0.33280809	         -0.06896251	          0.99896904	
          2.17000000	         -0.35418086	         -0.07726960	          0.98935149	
          2.18000000	         -0.45755893	         -0.15239865	          0.95694578	
          2.19000000	         -0.63104810	         -0.28925246	          0.90551797	
          2.20000000	         -0.84653870	         -0.46888542	          0.84346055	
          2.21000000	         -1.06838839	         -0.66416377	          0.78126596	
          2.22000000	         -1.26272262	         -0.84681001	          0.72885782	
          2.23000000	         -1.40363080	         -0.99280370	          0.69379371	
          2.24000000	         -1.47548752	         -1.08512007	          0.68054784	
          2.25000000	         -1.47249098	         -1.11429370	          0.69058559	
          2.26000000	         -1.39684214	         -1.07771225	          0.72287096	
          2.27000000	         -1.25657600	         -0.97837286	          0.77453688	
          2.28000000	         -1.06357912	         -0.82356301	          0.84153433	
          2.29000000	         -0.83201909	         -0.62372285	          0.91915444	
          2.30000000	         -0.57733910	         -0.39170163	          1.00235989	
          2.31000000	         -0.31594355	         -0.14260942	          1.08588974	
          2.32000000	         -0.06545213	          0.10576487	          1.16417423	
          2.33000000	          0.15500626	          0.33243258	          1.23120682	
          2.34000000	          0.32526694	          0.51343477	          1.28060713	
          2.35000000	          0.42611045	          0.62377667	          1.30611997	
          2.36000000	          0.44297267	          0.64163050	          1.30268552	
          2.37000000	          0.37070942	          0.55441771	          1.26795580	
          2.38000000	          0.21758525	          0.36485731	          1.20373029	
          2.39000000	          0.00582240	          0.09359297	          1.11643491	
          2.40000000	         -0.23280387	         -0.22421772	          1.01603920	
          2.41000000	         -0.46460829	         -0.54722571	          0.91379585	
          2.42000000	         -0.66118998	         -0.83701531	          0.81988948	
          2.43000000	         -0.80372732	         -1.06466886	          0.74181790	
          2.44000000	         -0.88413260	         -1.21380684	          0.68370463	
          2.45000000	         -0.90387977	         -1.28054267	          0.64640921	
          2.46000000	         -0.87149909	         -1.27127366	          0.62819485	
          2.47000000	         -0.79970729	         -1.19947025	          0.62564724	
          2.48000000	         -0.70289524	         -1.08250842	          0.63455516	
          2.49000000	         -0.59522480	         -0.93903909	          0.65060200	
          2.50000000	         -0.48923440	         -0.78688218	          0.66986358	
          2.51000000	         -0.39483284	         -0.64134540	          0.68915104	
          2.52000000	         -0.31868745	         -0.51400986	          0.70621035	
          2.53000000	         -0.26405799	         -0.41209022	          0.71977188	
          2.54000000	         -0.23107646	         -0.33842831	          0.72945235	
          2.55000000	         -0.21739336	         -0.29208038	          0.73553317	
          2.56000000	         -0.21904157	         -0.26933919	          0.73866622	
          2.57000000	         -0.23133768	         -0.26494984	          0.73957893	
          2.58000000	         -0.24967020	         -0.27327086	          0.73885253	
          2.59000000	         -0.27009317	         -0.28920314	          0.73682083	
          2.60000000	         -0.28968723	         -0.30876596	          0.73359873	
          2.61000000	         -0.30665134	         -0.32922339	          0.72921484	
          2.62000000	         -0.32016036	         -0.34883975	          0.72376784	
          2.63000000	         -0.33005984	         -0.36642726	          0.71753207	
          2.64000000	         -0.33660020	         -0.38107458	          0.71093590	
          2.65000000	         -0.34027325	         -0.39213411	          0.70445010	
          2.66000000	         -0.34174356	         -0.39938969	          0.69846169	
          2.67000000	         -0.34186945	         -0.40338064	          0.69315739	
          2.68000000	         -0.34168632	         -0.40559332	          0.68847252	
          2.69000000	         -0.34224258	         -0.40823109	          0.68415024	
          2.70000000	         -0.34429258	         -0.41351118	          0.67990529	
          2.71000000	         -0.34799990	         -0.42280327	          0.67561312	
          2.72000000	         -0.35283629	         -0.43608739	          0.67141266	
          2.73000000	         -0.35774850	         -0.45201046	          0.66766364	
          2.74000000	         -0.36150121	         -0.46843690	          0.66479633	
          2.75000000	         -0.36301461	         -0.48312206	          0.66315229	
          2.76000000	         -0.36155931	         -0.49418519	          0.66289124	
          2.77000000	         -0.35679659	         -0.50032398	          0.66396712	
          2.78000000	         -0.34874528	         -0.50091376	          0.66613291	
          2.79000000	         -0.33775149	         -0.49610115	          0.66895020	
          2.80000000	         -0.32446315	         -0.48683420	          0.67182142	
          2.81000000	         -0.30975544	         -0.47468072	          0.67407634	
          2.82000000	         -0.29456513	         -0.46136383	          0.67511438	
          2.83000000	         -0.27966387	         -0.44814654	          0.67455566	
          2.84000000	         -0.26547817	         -0.43538538	          0.67232412	
          2.85000000	         -0.25206765	         -0.42255544	          0.66860805	
          2.86000000	         -0.23927779	         -0.40877401	          0.66371250	
          2.87000000	         -0.22696020	         -0.39349627	          0.65789046	
          2.88000000	         -0.21511018	         -0.37691909	          0.65125383	
          2.89000000	         -0.20385405	         -0.35986491	          0.64380274	
          2.90000000	         -0.19334331	         -0.34331580	          0.63552656	
          2.91000000	         -0.18365941	         -0.32796089	          0.62649358	
          2.92000000	         -0.17478347	         -0.31400943	          0.61686957	
          2.93000000	         -0.16661281	         -0.30128054	          0.60685992	
          2.94000000	         -0.15897633	         -0.28941566	          0.59661339	
          2.95000000	         -0.15162758	         -0.27806397	          0.58613640	
          2.96000000	         -0.14424237	         -0.26701129	          0.57524755	
          2.97000000	         -0.13646061	         -0.25627865	          0.56358786	
          2.98000000	         -0.12797731	         -0.24616884	          0.55069470	
          2.99000000	         -0.11864441	         -0.23721418	          0.53612427	
          3.00000000	         -0.10853347	         -0.23003551	          0.51957896	
          3.01000000	         -0.09792789	         -0.22518284	          0.50098566	
          3.02000000	         -0.08723698	         -0.22299034	          0.48050010	
          3.03000000	         -0.07685128	         -0.22340560	          0.45845728	
          3.04000000	         -0.06698759	         -0.22574732	          0.43531886	
          3.05000000	         -0.05757836	         -0.22839104	          0.41166379	
          3.06000000	         -0.04823538	         -0.22843628	          0.38823025	
          3.07000000	         -0.03828947	         -0.22151107	          0.36596163	
          3.08000000	         -0.02689672	         -0.20198253	          0.34597680	
          3.09000000	         -0.01320195	         -0.16379057	          0.32941402	
          3.10000000	          0.00345543	         -0.10185913	          0.31717355	
          3.11000000	          0.02333114	         -0.01371506	          0.30964745	
          3.12000000	          0.04612932	          0.09927245	          0.30654618	
          3.13000000	          0.07099645	          0.23161662	          0.30690559	
          3.14000000	          0.09669657	          0.37470095	          0.30929544	
          3.15000000	          0.12192056	          0.51876120	          0.31216255	
          3.16000000	          0.14554622	          0.65476463	          0.31413320	
          3.17000000	          0.16657736	          0.77451779	          0.31403994	
